<svg width="23" height="23" viewBox="0 0 23 23" fill="none" xmlns="http://www.w3.org/2000/svg">
<path d="M12.5243 0C13.8019 0.00340688 14.4504 0.0102206 15.0102 0.0261194L15.2305 0.0340688C15.4849 0.0431538 15.7359 0.0545101 16.0391 0.0681376C17.2474 0.124919 18.0719 0.315705 18.7953 0.596205C19.5448 0.884654 20.1762 1.27531 20.8076 1.90558C21.3853 2.47309 21.8322 3.15985 22.117 3.91791C22.3975 4.64131 22.5883 5.46577 22.6451 6.67522C22.6587 6.9773 22.67 7.22827 22.6791 7.48379L22.6859 7.7041C22.703 8.26283 22.7098 8.91127 22.7121 10.1889L22.7132 11.036V12.5237C22.716 13.352 22.7073 14.1804 22.6871 15.0085L22.6803 15.2288C22.6712 15.4843 22.6598 15.7353 22.6462 16.0373C22.5894 17.2468 22.3964 18.0701 22.117 18.7946C21.8322 19.5527 21.3853 20.2395 20.8076 20.807C20.2401 21.3847 19.5533 21.8315 18.7953 22.1163C18.0719 22.3968 17.2474 22.5876 16.0391 22.6444L15.2305 22.6785L15.0102 22.6853C14.4504 22.7012 13.8019 22.7091 12.5243 22.7114L11.6772 22.7126H10.1906C9.36192 22.7155 8.53321 22.7068 7.70474 22.6864L7.48443 22.6796C7.21484 22.6694 6.94532 22.6577 6.67586 22.6444C5.46756 22.5876 4.64309 22.3968 3.91856 22.1163C3.1609 21.8314 2.47455 21.3845 1.90736 20.807C1.32927 20.2396 0.882017 19.5528 0.596851 18.7946C0.316351 18.0712 0.125565 17.2468 0.0687835 16.0373L0.0347147 15.2288L0.0290367 15.0085C0.00810263 14.1804 -0.00136195 13.352 0.000645941 12.5237V10.1889C-0.00249736 9.36052 0.00583146 8.53219 0.0256298 7.7041L0.0335792 7.48379C0.0426642 7.22827 0.0540204 6.9773 0.067648 6.67522C0.124429 5.46577 0.315215 4.64244 0.595715 3.91791C0.881546 3.15954 1.32958 2.47276 1.9085 1.90558C2.47535 1.32817 3.16131 0.88133 3.91856 0.596205C4.64309 0.315705 5.46642 0.124919 6.67586 0.0681376C6.97794 0.0545101 7.23005 0.0431538 7.48443 0.0340688L7.70474 0.027255C8.53283 0.00707803 9.36116 -0.00162928 10.1895 0.00113555L12.5243 0ZM11.3569 5.67814C9.85098 5.67814 8.40673 6.27637 7.34187 7.34123C6.27701 8.40608 5.67878 9.85034 5.67878 11.3563C5.67878 12.8622 6.27701 14.3065 7.34187 15.3713C8.40673 16.4362 9.85098 17.0344 11.3569 17.0344C12.8629 17.0344 14.3071 16.4362 15.372 15.3713C16.4368 14.3065 17.0351 12.8622 17.0351 11.3563C17.0351 9.85034 16.4368 8.40608 15.372 7.34123C14.3071 6.27637 12.8629 5.67814 11.3569 5.67814ZM11.3569 7.94939C11.8043 7.94932 12.2474 8.03737 12.6607 8.20851C13.0741 8.37965 13.4497 8.63054 13.7661 8.94684C14.0825 9.26315 14.3335 9.63868 14.5048 10.052C14.6761 10.4653 14.7643 10.9083 14.7644 11.3557C14.7644 11.8031 14.6764 12.2461 14.5053 12.6595C14.3341 13.0729 14.0832 13.4485 13.7669 13.7649C13.4506 14.0813 13.0751 14.3323 12.6618 14.5036C12.2485 14.6749 11.8055 14.7631 11.3581 14.7632C10.4545 14.7632 9.58794 14.4042 8.94903 13.7653C8.31011 13.1264 7.95117 12.2598 7.95117 11.3563C7.95117 10.4527 8.31011 9.58616 8.94903 8.94724C9.58794 8.30833 10.4545 7.94939 11.3581 7.94939M17.3201 3.9747C16.9436 3.9747 16.5826 4.12425 16.3163 4.39047C16.0501 4.65668 15.9006 5.01775 15.9006 5.39423C15.9006 5.77071 16.0501 6.13178 16.3163 6.39799C16.5826 6.66421 16.9436 6.81377 17.3201 6.81377C17.6966 6.81377 18.0576 6.66421 18.3239 6.39799C18.5901 6.13178 18.7396 5.77071 18.7396 5.39423C18.7396 5.01775 18.5901 4.65668 18.3239 4.39047C18.0576 4.12425 17.6966 3.9747 17.3201 3.9747Z" fill="#F7F7F7"/>
</svg>
