<svg width="21" height="21" viewBox="0 0 21 21" fill="none" xmlns="http://www.w3.org/2000/svg">
<path d="M18.3077 0C18.9146 0 19.4967 0.241105 19.9259 0.670275C20.355 1.09944 20.5962 1.68152 20.5962 2.28846V18.3077C20.5962 18.9146 20.355 19.4967 19.9259 19.9259C19.4967 20.355 18.9146 20.5962 18.3077 20.5962H2.28846C1.68152 20.5962 1.09944 20.355 0.670275 19.9259C0.241105 19.4967 0 18.9146 0 18.3077V2.28846C0 1.68152 0.241105 1.09944 0.670275 0.670275C1.09944 0.241105 1.68152 0 2.28846 0H18.3077ZM17.7356 17.7356V11.6712C17.7356 10.6818 17.3426 9.73306 16.643 9.03351C15.9435 8.33396 14.9947 7.94096 14.0054 7.94096C13.0328 7.94096 11.9 8.53596 11.3508 9.42846V8.15837H8.15837V17.7356H11.3508V12.0945C11.3508 11.2135 12.0602 10.4926 12.9412 10.4926C13.3661 10.4926 13.7736 10.6614 14.074 10.9618C14.3744 11.2622 14.5432 11.6697 14.5432 12.0945V17.7356H17.7356ZM4.43962 6.36192C4.94944 6.36192 5.43839 6.15939 5.79889 5.79889C6.15939 5.43839 6.36192 4.94944 6.36192 4.43962C6.36192 3.37548 5.50375 2.50587 4.43962 2.50587C3.92675 2.50587 3.4349 2.7096 3.07225 3.07225C2.7096 3.4349 2.50587 3.92675 2.50587 4.43962C2.50587 5.50375 3.37548 6.36192 4.43962 6.36192ZM6.0301 17.7356V8.15837H2.86058V17.7356H6.0301Z" fill="#F7F7F7"/>
</svg>
