<svg width="33" height="23" viewBox="0 0 33 23" fill="none" xmlns="http://www.w3.org/2000/svg">
<path d="M32.7964 14.5486C32.9273 14.6907 33 14.8768 33 15.07V21.846C33 22.2708 32.6556 22.6152 32.2308 22.6152H24.3073C24.11 22.6152 23.9203 22.5394 23.7773 22.4035L13.1449 12.2965C12.655 11.8308 11.8457 12.1781 11.8457 12.8541V21.846C11.8457 22.2708 11.5013 22.6152 11.0765 22.6152H0.769229C0.344395 22.6152 0 22.2708 0 21.846V11.5378C0 11.113 0.344396 10.7686 0.769229 10.7686H10.7689C11.1937 10.7686 11.5381 10.4242 11.5381 9.99933V0.769229C11.5381 0.344395 11.8825 0 12.3073 0H19.0477C19.2625 0 19.4676 0.0898694 19.6132 0.247852L32.7964 14.5486Z" fill="#467CF9"/>
</svg>
