<svg width="24" height="24" viewBox="0 0 24 24" fill="none" xmlns="http://www.w3.org/2000/svg">
<mask id="mask0_1623_3446" style="mask-type:luminance" maskUnits="userSpaceOnUse" x="0" y="0" width="24" height="24">
<path d="M0 0H23.8109V23.8109H0V0Z" fill="white"/>
</mask>
<g mask="url(#mask0_1623_3446)">
<path d="M14.1487 0.175702L13.4344 0.0754455C11.2875 -0.234525 9.09682 0.0721312 7.11762 0.959664C5.13842 1.8472 3.45228 3.27904 2.25577 5.08827C0.982708 6.81766 0.223804 8.87136 0.0663938 11.013C-0.0910162 13.1547 0.359464 15.2973 1.36599 17.1942C1.469 17.3843 1.53314 17.5931 1.55465 17.8082C1.57617 18.0234 1.55464 18.2407 1.49131 18.4474C0.9775 20.2144 0.501282 21.994 0 23.8613L0.626603 23.6733C2.31843 23.2221 4.01026 22.771 5.70208 22.3574C6.05917 22.2832 6.43034 22.3181 6.76731 22.4577C8.28519 23.1985 9.94396 23.606 11.6323 23.653C13.3207 23.6999 14.9995 23.3852 16.5562 22.7299C18.1129 22.0746 19.5115 21.0939 20.658 19.8537C21.8045 18.6134 22.6724 17.1422 23.2035 15.5389C23.7347 13.9356 23.9167 12.2372 23.7374 10.5578C23.5582 8.8783 23.0217 7.25661 22.1641 5.80153C21.3065 4.34646 20.1476 3.09165 18.7651 2.12133C17.3827 1.15101 15.8086 0.48763 14.1487 0.175702ZM17.3068 16.6178C16.8513 17.0255 16.2959 17.3053 15.6971 17.4286C15.0983 17.5519 14.4776 17.5142 13.898 17.3195C11.2725 16.5791 8.99456 14.9317 7.4691 12.6702C6.88658 11.8701 6.41839 10.9928 6.07805 10.0635C5.89364 9.52433 5.86039 8.94497 5.98189 8.38825C6.1034 7.83153 6.37502 7.31871 6.76731 6.90541C6.95828 6.66168 7.21823 6.48112 7.51329 6.38723C7.80834 6.29335 8.12484 6.29051 8.42154 6.37907C8.67218 6.44173 8.84763 6.80516 9.07321 7.08086C9.25701 7.59885 9.47005 8.10431 9.71234 8.59724C9.89584 8.84852 9.97248 9.16219 9.92552 9.46977C9.87856 9.77735 9.71182 10.0539 9.4617 10.2389C8.89776 10.7402 8.98548 11.1538 9.38651 11.7177C10.2726 12.9954 11.4961 14.0019 12.9205 14.6252C13.3216 14.8006 13.6223 14.8382 13.8855 14.4246C13.9983 14.2617 14.1487 14.1239 14.274 13.9735C15.0009 13.0586 14.7753 13.0712 15.9282 13.5725C16.2958 13.727 16.6509 13.9067 16.9935 14.1113C17.3318 14.3119 17.8456 14.5249 17.9208 14.8257C17.9932 15.152 17.9741 15.4919 17.8658 15.8081C17.7575 16.1242 17.564 16.4044 17.3068 16.6178Z" fill="#F7F7F7"/>
</g>
</svg>
